<svg width="123" height="123" viewBox="0 0 123 123" fill="none" xmlns="http://www.w3.org/2000/svg">
<path d="M61.44 0C78.4 0 93.768 6.882 104.893 17.986C115.997 29.111 122.879 44.48 122.879 61.439C122.879 78.4 115.996 93.767 104.893 104.892C93.769 115.998 78.4 122.879 61.44 122.879C44.48 122.879 29.111 115.998 17.986 104.893C6.882 93.768 0 78.4 0 61.439C0 44.48 6.882 29.111 17.986 17.986C29.112 6.882 44.48 0 61.44 0ZM73.452 39.152C76.202 36.36 80.673 36.347 83.438 39.126C86.202 41.902 86.213 46.418 83.465 49.209L71.4 61.445L83.477 73.695C86.205 76.465 86.166 80.951 83.396 83.716C80.624 86.482 76.167 86.474 73.442 83.704L61.445 71.541L49.428 83.729C46.678 86.522 42.208 86.534 39.443 83.754C36.68 80.979 36.667 76.463 39.417 73.672L51.48 61.435L39.402 49.185C36.676 46.416 36.713 41.929 39.484 39.163C42.256 36.398 46.713 36.405 49.438 39.176L61.435 51.34L73.452 39.152ZM96.899 25.98C87.826 16.907 75.29 11.296 61.44 11.296C47.589 11.296 35.053 16.907 25.98 25.981C16.907 35.054 11.296 47.59 11.296 61.44C11.296 75.29 16.907 87.827 25.98 96.899C35.053 105.973 47.589 111.585 61.44 111.585C75.29 111.585 87.826 105.974 96.899 96.899C105.972 87.827 111.583 75.29 111.583 61.44C111.583 47.59 105.973 35.054 96.899 25.98Z" fill="#F6F8FC"/>
</svg>
