<svg width="58" height="50" viewBox="0 0 58 50" fill="none" xmlns="http://www.w3.org/2000/svg">
<path d="M22.4376 41.9705L5.2709 15.9028C4.50027 14.74 4.06331 13.393 4.00638 12.005C3.94944 10.617 4.27466 9.23972 4.94754 8.01926C5.62041 6.79881 6.61583 5.78075 7.82815 5.07311C9.04048 4.36548 10.4245 3.99468 11.8333 4.00006H46.1667C47.5755 3.99468 48.9595 4.36548 50.1718 5.07311C51.3842 5.78075 52.3796 6.79881 53.0525 8.01926C53.7253 9.23972 54.0506 10.617 53.9936 12.005C53.9367 13.393 53.4997 14.74 52.7291 15.9028L35.5624 41.9705C34.8557 43.0536 33.8846 43.9445 32.738 44.5615C31.5915 45.1785 30.3062 45.5018 29 45.5018C27.6938 45.5018 26.4085 45.1785 25.262 44.5615C24.1154 43.9445 23.1443 43.0536 22.4376 41.9705Z" fill="#36393B" stroke="#C6F91F" stroke-width="7" stroke-miterlimit="10"/>
</svg>
